REM DIRINDEX 1\5,1\2\6,1\2\7,1\3\8,1\3\9,1\4\10,1\4\11,1\4\12
REM DIRNAME cjc026,folder01,folder02,folder03,folder04,folder05,folder06,folder07,folder08,folder09,folder10,folder11
TITLE ""
FILE "EJE_DB3000_5th_1A_12.mp3" MP3
  TRACK 01 AUDIO
    TITLE "0:"
    INDEX 01 00:00:00
  TRACK 02 AUDIO
    TITLE "10:cjc026_07194"
    INDEX 01 00:00:08
  TRACK 03 AUDIO
    TITLE "0:"
    INDEX 01 00:01:16
  TRACK 04 AUDIO
    TITLE "11:cjc026_07195"
    INDEX 01 00:01:51
  TRACK 05 AUDIO
    TITLE "0:"
    INDEX 01 00:02:71
  TRACK 06 AUDIO
    TITLE "12:cjc026_07196"
    INDEX 01 00:03:28
  TRACK 07 AUDIO
    TITLE "0:"
    INDEX 01 00:04:40
  TRACK 08 AUDIO
    TITLE "10:cjc026_07197"
    INDEX 01 00:05:00
  TRACK 09 AUDIO
    TITLE "0:"
    INDEX 01 00:06:19
  TRACK 10 AUDIO
    TITLE "11:cjc026_07198"
    INDEX 01 00:06:54
  TRACK 11 AUDIO
    TITLE "0:"
    INDEX 01 00:08:15
  TRACK 12 AUDIO
    TITLE "12:cjc026_07199"
    INDEX 01 00:08:50
  TRACK 13 AUDIO
    TITLE "0:"
    INDEX 01 00:09:67
  TRACK 14 AUDIO
    TITLE "10:cjc026_07200"
    INDEX 01 00:10:27
  TRACK 15 AUDIO
    TITLE "0:"
    INDEX 01 00:11:39
  TRACK 16 AUDIO
    TITLE "11:cjc026_07201"
    INDEX 01 00:11:74
  TRACK 17 AUDIO
    TITLE "0:"
    INDEX 01 00:13:21
  TRACK 18 AUDIO
    TITLE "12:cjc026_07202"
    INDEX 01 00:13:56
  TRACK 19 AUDIO
    TITLE "0:"
    INDEX 01 00:14:65
  TRACK 20 AUDIO
    TITLE "10:cjc026_07203"
    INDEX 01 00:15:25
  TRACK 21 AUDIO
    TITLE "0:"
    INDEX 01 00:16:33
  TRACK 22 AUDIO
    TITLE "11:cjc026_07204"
    INDEX 01 00:16:71
  TRACK 23 AUDIO
    TITLE "0:"
    INDEX 01 00:18:29
  TRACK 24 AUDIO
    TITLE "12:cjc026_07205"
    INDEX 01 00:18:64
  TRACK 25 AUDIO
    TITLE "0:"
    INDEX 01 00:19:73
  TRACK 26 AUDIO
    TITLE "10:cjc026_07206"
    INDEX 01 00:20:33
  TRACK 27 AUDIO
    TITLE "0:"
    INDEX 01 00:21:50
  TRACK 28 AUDIO
    TITLE "11:cjc026_07207"
    INDEX 01 00:22:10
  TRACK 29 AUDIO
    TITLE "0:"
    INDEX 01 00:23:40
  TRACK 30 AUDIO
    TITLE "12:cjc026_07208"
    INDEX 01 00:24:00
  TRACK 31 AUDIO
    TITLE "0:"
    INDEX 01 00:25:15
  TRACK 32 AUDIO
    TITLE "10:cjc026_07209"
    INDEX 01 00:25:50
  TRACK 33 AUDIO
    TITLE "0:"
    INDEX 01 00:26:64
  TRACK 34 AUDIO
    TITLE "11:cjc026_07210"
    INDEX 01 00:27:24
  TRACK 35 AUDIO
    TITLE "0:"
    INDEX 01 00:28:57
  TRACK 36 AUDIO
    TITLE "12:cjc026_07211"
    INDEX 01 00:29:17
  TRACK 37 AUDIO
    TITLE "0:"
    INDEX 01 00:30:31
  TRACK 38 AUDIO
    TITLE "10:cjc026_07212"
    INDEX 01 00:30:69
  TRACK 39 AUDIO
    TITLE "0:"
    INDEX 01 00:32:11
  TRACK 40 AUDIO
    TITLE "11:cjc026_07213"
    INDEX 01 00:32:46
  TRACK 41 AUDIO
    TITLE "0:"
    INDEX 01 00:33:54
  TRACK 42 AUDIO
    TITLE "12:cjc026_07214"
    INDEX 01 00:34:17
  TRACK 43 AUDIO
    TITLE "0:"
    INDEX 01 00:35:34
  TRACK 44 AUDIO
    TITLE "10:cjc026_07215"
    INDEX 01 00:35:69
  TRACK 45 AUDIO
    TITLE "0:"
    INDEX 01 00:37:03
  TRACK 46 AUDIO
    TITLE "11:cjc026_07216"
    INDEX 01 00:37:38
  TRACK 47 AUDIO
    TITLE "0:"
    INDEX 01 00:38:68
  TRACK 48 AUDIO
    TITLE "12:cjc026_07217"
    INDEX 01 00:39:28
  TRACK 49 AUDIO
    TITLE "0:"
    INDEX 01 00:40:37
  TRACK 50 AUDIO
    TITLE "10:cjc026_07218"
    INDEX 01 00:40:72
  TRACK 51 AUDIO
    TITLE "0:"
    INDEX 01 00:42:11
  TRACK 52 AUDIO
    TITLE "11:cjc026_07219"
    INDEX 01 00:42:46
  TRACK 53 AUDIO
    TITLE "0:"
    INDEX 01 00:44:02
  TRACK 54 AUDIO
    TITLE "12:cjc026_07220"
    INDEX 01 00:44:34
  TRACK 55 AUDIO
    TITLE "0:"
    INDEX 01 00:45:48
  TRACK 56 AUDIO
    TITLE "10:cjc026_07221"
    INDEX 01 00:46:11
  TRACK 57 AUDIO
    TITLE "0:"
    INDEX 01 00:47:33
  TRACK 58 AUDIO
    TITLE "11:cjc026_07222"
    INDEX 01 00:47:68
  TRACK 59 AUDIO
    TITLE "0:"
    INDEX 01 00:49:21
  TRACK 60 AUDIO
    TITLE "12:cjc026_07223"
    INDEX 01 00:49:59
  TRACK 61 AUDIO
    TITLE "0:"
    INDEX 01 00:51:06
